<mxfile host="app.diagrams.net" modified="2023-11-06T23:52:16.767Z" agent="Mozilla/5.0 (Windows NT 10.0; Win64; x64) AppleWebKit/537.36 (KHTML, like Gecko) Chrome/118.0.0.0 Safari/537.36" etag="x9f6lYpP96ZiVrW14EXx" version="22.0.8" type="device">
  <diagram name="Página-1" id="zVlXwkAIBwQSL3pQDfu4">
    <mxGraphModel dx="1195" dy="632" grid="1" gridSize="10" guides="1" tooltips="1" connect="1" arrows="1" fold="1" page="1" pageScale="1" pageWidth="827" pageHeight="1169" math="0" shadow="0">
      <root>
        <mxCell id="0" />
        <mxCell id="1" parent="0" />
        <mxCell id="q98aB3h1lPMuuDOqtkUe-7" style="edgeStyle=orthogonalEdgeStyle;rounded=0;orthogonalLoop=1;jettySize=auto;html=1;exitX=0;exitY=0.5;exitDx=0;exitDy=0;entryX=1;entryY=0.5;entryDx=0;entryDy=0;" edge="1" parent="1" source="q98aB3h1lPMuuDOqtkUe-1" target="q98aB3h1lPMuuDOqtkUe-4">
          <mxGeometry relative="1" as="geometry" />
        </mxCell>
        <mxCell id="q98aB3h1lPMuuDOqtkUe-8" style="edgeStyle=orthogonalEdgeStyle;rounded=0;orthogonalLoop=1;jettySize=auto;html=1;exitX=1;exitY=0.5;exitDx=0;exitDy=0;entryX=0;entryY=0.5;entryDx=0;entryDy=0;" edge="1" parent="1" source="q98aB3h1lPMuuDOqtkUe-1" target="q98aB3h1lPMuuDOqtkUe-3">
          <mxGeometry relative="1" as="geometry" />
        </mxCell>
        <mxCell id="q98aB3h1lPMuuDOqtkUe-10" value="" style="edgeStyle=orthogonalEdgeStyle;rounded=0;orthogonalLoop=1;jettySize=auto;html=1;" edge="1" parent="1" source="q98aB3h1lPMuuDOqtkUe-1" target="q98aB3h1lPMuuDOqtkUe-9">
          <mxGeometry relative="1" as="geometry" />
        </mxCell>
        <mxCell id="q98aB3h1lPMuuDOqtkUe-1" value="Página do Login" style="rounded=0;whiteSpace=wrap;html=1;" vertex="1" parent="1">
          <mxGeometry x="354" y="150" width="120" height="60" as="geometry" />
        </mxCell>
        <mxCell id="q98aB3h1lPMuuDOqtkUe-2" value="" style="endArrow=classic;html=1;rounded=0;entryX=0.5;entryY=0;entryDx=0;entryDy=0;" edge="1" parent="1" target="q98aB3h1lPMuuDOqtkUe-1">
          <mxGeometry width="50" height="50" relative="1" as="geometry">
            <mxPoint x="414" y="80" as="sourcePoint" />
            <mxPoint x="480" y="290" as="targetPoint" />
            <Array as="points">
              <mxPoint x="414" y="80" />
            </Array>
          </mxGeometry>
        </mxCell>
        <mxCell id="q98aB3h1lPMuuDOqtkUe-3" value="Criar Perfil" style="rounded=0;whiteSpace=wrap;html=1;" vertex="1" parent="1">
          <mxGeometry x="550" y="150" width="120" height="60" as="geometry" />
        </mxCell>
        <mxCell id="q98aB3h1lPMuuDOqtkUe-4" value="DashBoard do Admin" style="rounded=0;whiteSpace=wrap;html=1;" vertex="1" parent="1">
          <mxGeometry x="200" y="150" width="120" height="60" as="geometry" />
        </mxCell>
        <mxCell id="q98aB3h1lPMuuDOqtkUe-17" style="edgeStyle=orthogonalEdgeStyle;rounded=0;orthogonalLoop=1;jettySize=auto;html=1;exitX=0;exitY=0.5;exitDx=0;exitDy=0;entryX=0.5;entryY=0;entryDx=0;entryDy=0;" edge="1" parent="1" source="q98aB3h1lPMuuDOqtkUe-9" target="q98aB3h1lPMuuDOqtkUe-11">
          <mxGeometry relative="1" as="geometry" />
        </mxCell>
        <mxCell id="q98aB3h1lPMuuDOqtkUe-18" style="edgeStyle=orthogonalEdgeStyle;rounded=0;orthogonalLoop=1;jettySize=auto;html=1;exitX=0;exitY=0.75;exitDx=0;exitDy=0;entryX=0.5;entryY=0;entryDx=0;entryDy=0;" edge="1" parent="1" source="q98aB3h1lPMuuDOqtkUe-9" target="q98aB3h1lPMuuDOqtkUe-12">
          <mxGeometry relative="1" as="geometry" />
        </mxCell>
        <mxCell id="q98aB3h1lPMuuDOqtkUe-23" style="edgeStyle=orthogonalEdgeStyle;rounded=0;orthogonalLoop=1;jettySize=auto;html=1;exitX=1;exitY=0.75;exitDx=0;exitDy=0;entryX=0.5;entryY=0;entryDx=0;entryDy=0;" edge="1" parent="1" source="q98aB3h1lPMuuDOqtkUe-9" target="q98aB3h1lPMuuDOqtkUe-15">
          <mxGeometry relative="1" as="geometry" />
        </mxCell>
        <mxCell id="q98aB3h1lPMuuDOqtkUe-24" style="edgeStyle=orthogonalEdgeStyle;rounded=0;orthogonalLoop=1;jettySize=auto;html=1;exitX=1;exitY=0.5;exitDx=0;exitDy=0;entryX=0.5;entryY=0;entryDx=0;entryDy=0;" edge="1" parent="1" source="q98aB3h1lPMuuDOqtkUe-9" target="q98aB3h1lPMuuDOqtkUe-16">
          <mxGeometry relative="1" as="geometry" />
        </mxCell>
        <mxCell id="q98aB3h1lPMuuDOqtkUe-9" value="Página Inicial" style="rounded=0;whiteSpace=wrap;html=1;" vertex="1" parent="1">
          <mxGeometry x="354" y="250" width="120" height="60" as="geometry" />
        </mxCell>
        <mxCell id="q98aB3h1lPMuuDOqtkUe-11" value="Criar Leilão" style="rounded=0;whiteSpace=wrap;html=1;" vertex="1" parent="1">
          <mxGeometry x="30" y="330" width="120" height="60" as="geometry" />
        </mxCell>
        <mxCell id="q98aB3h1lPMuuDOqtkUe-12" value="Leilões a Observar" style="rounded=0;whiteSpace=wrap;html=1;" vertex="1" parent="1">
          <mxGeometry x="170" y="330" width="120" height="60" as="geometry" />
        </mxCell>
        <mxCell id="q98aB3h1lPMuuDOqtkUe-13" value="Gerir Saldo" style="rounded=0;whiteSpace=wrap;html=1;" vertex="1" parent="1">
          <mxGeometry x="300" y="330" width="120" height="60" as="geometry" />
        </mxCell>
        <mxCell id="q98aB3h1lPMuuDOqtkUe-29" style="edgeStyle=orthogonalEdgeStyle;rounded=0;orthogonalLoop=1;jettySize=auto;html=1;exitX=0.5;exitY=1;exitDx=0;exitDy=0;entryX=0.5;entryY=0;entryDx=0;entryDy=0;" edge="1" parent="1" source="q98aB3h1lPMuuDOqtkUe-14" target="q98aB3h1lPMuuDOqtkUe-26">
          <mxGeometry relative="1" as="geometry" />
        </mxCell>
        <mxCell id="q98aB3h1lPMuuDOqtkUe-30" style="edgeStyle=orthogonalEdgeStyle;rounded=0;orthogonalLoop=1;jettySize=auto;html=1;exitX=0.25;exitY=1;exitDx=0;exitDy=0;entryX=0.5;entryY=0;entryDx=0;entryDy=0;" edge="1" parent="1" source="q98aB3h1lPMuuDOqtkUe-14" target="q98aB3h1lPMuuDOqtkUe-25">
          <mxGeometry relative="1" as="geometry" />
        </mxCell>
        <mxCell id="q98aB3h1lPMuuDOqtkUe-14" value="Página do Perfil" style="rounded=0;whiteSpace=wrap;html=1;" vertex="1" parent="1">
          <mxGeometry x="430" y="330" width="120" height="60" as="geometry" />
        </mxCell>
        <mxCell id="q98aB3h1lPMuuDOqtkUe-31" style="edgeStyle=orthogonalEdgeStyle;rounded=0;orthogonalLoop=1;jettySize=auto;html=1;exitX=0.5;exitY=1;exitDx=0;exitDy=0;entryX=0.5;entryY=0;entryDx=0;entryDy=0;" edge="1" parent="1" source="q98aB3h1lPMuuDOqtkUe-15" target="q98aB3h1lPMuuDOqtkUe-27">
          <mxGeometry relative="1" as="geometry" />
        </mxCell>
        <mxCell id="q98aB3h1lPMuuDOqtkUe-15" value="Pesquisar Leilões" style="rounded=0;whiteSpace=wrap;html=1;" vertex="1" parent="1">
          <mxGeometry x="590" y="330" width="120" height="60" as="geometry" />
        </mxCell>
        <mxCell id="q98aB3h1lPMuuDOqtkUe-16" value="Página de Leilão" style="rounded=0;whiteSpace=wrap;html=1;" vertex="1" parent="1">
          <mxGeometry x="720" y="330" width="120" height="60" as="geometry" />
        </mxCell>
        <mxCell id="q98aB3h1lPMuuDOqtkUe-19" style="edgeStyle=orthogonalEdgeStyle;rounded=0;orthogonalLoop=1;jettySize=auto;html=1;exitX=0.25;exitY=1;exitDx=0;exitDy=0;entryX=0.592;entryY=-0.033;entryDx=0;entryDy=0;entryPerimeter=0;" edge="1" parent="1" source="q98aB3h1lPMuuDOqtkUe-9" target="q98aB3h1lPMuuDOqtkUe-13">
          <mxGeometry relative="1" as="geometry" />
        </mxCell>
        <mxCell id="q98aB3h1lPMuuDOqtkUe-22" style="edgeStyle=orthogonalEdgeStyle;rounded=0;orthogonalLoop=1;jettySize=auto;html=1;exitX=0.75;exitY=1;exitDx=0;exitDy=0;entryX=0.146;entryY=0.002;entryDx=0;entryDy=0;entryPerimeter=0;" edge="1" parent="1" source="q98aB3h1lPMuuDOqtkUe-9" target="q98aB3h1lPMuuDOqtkUe-14">
          <mxGeometry relative="1" as="geometry" />
        </mxCell>
        <mxCell id="q98aB3h1lPMuuDOqtkUe-25" value="Alterar Dados da Conta" style="rounded=0;whiteSpace=wrap;html=1;" vertex="1" parent="1">
          <mxGeometry x="294" y="450" width="120" height="60" as="geometry" />
        </mxCell>
        <mxCell id="q98aB3h1lPMuuDOqtkUe-32" style="edgeStyle=orthogonalEdgeStyle;rounded=0;orthogonalLoop=1;jettySize=auto;html=1;exitX=0.5;exitY=1;exitDx=0;exitDy=0;entryX=0.5;entryY=0;entryDx=0;entryDy=0;" edge="1" parent="1" source="q98aB3h1lPMuuDOqtkUe-26" target="q98aB3h1lPMuuDOqtkUe-28">
          <mxGeometry relative="1" as="geometry" />
        </mxCell>
        <mxCell id="q98aB3h1lPMuuDOqtkUe-26" value="Histórico de Transações" style="rounded=0;whiteSpace=wrap;html=1;" vertex="1" parent="1">
          <mxGeometry x="430" y="450" width="120" height="60" as="geometry" />
        </mxCell>
        <mxCell id="q98aB3h1lPMuuDOqtkUe-27" value="Resultado da Pesquisa" style="rounded=0;whiteSpace=wrap;html=1;" vertex="1" parent="1">
          <mxGeometry x="590" y="450" width="120" height="60" as="geometry" />
        </mxCell>
        <mxCell id="q98aB3h1lPMuuDOqtkUe-28" value="Transação" style="rounded=0;whiteSpace=wrap;html=1;" vertex="1" parent="1">
          <mxGeometry x="430" y="530" width="120" height="60" as="geometry" />
        </mxCell>
      </root>
    </mxGraphModel>
  </diagram>
</mxfile>
